#!OML:ASF H:\ManfredETheater\Project 1\Capture day 1\Session 1\subject.ASF
:FULLY-SPECIFIED
:DEGREES
200
root 0.918916 16.9834 32.6383 -166.942 -3.40069 175.895
lowerback 6.63107 -0.575074 -4.13106
upperback -0.813098 -1.04715 1.43695
thorax -4.46911 -0.400066 3.92829
lowerneck -17.7665 -1.32622 -2.23322
upperneck 18.7962 -1.42382 -0.238875
head 8.8299 -0.95543 0.091145
rclavicle -4.17448e-015 -3.97569e-015
rhumerus -35.9019 -2.93947 -80.8678
rradius 40.6201
rwrist -2.89586
rhand -19.1086 -11.2643
rfingers 7.12502
rthumb 7.20035 -41.1218
lclavicle -4.17448e-015 -3.97569e-015
lhumerus -32.1878 0.247864 92.1462
lradius 31.7572
lwrist -12.9536
lhand -11.4183 9.32757
lfingers 7.12502
lthumb 14.6175 38.7924
rfemur -30.1188 -6.33158 10.9273
rtibia 56.871
rfoot -16.4736 -10.7579
rtoes -3.0534
lfemur -19.6818 -5.20929 -24.6339
ltibia 36.8754
lfoot -24.5906 4.61935
ltoes -1.4275
201
root 0.901237 16.9762 32.5906 -166.988 -3.23594 175.711
lowerback 6.74294 -0.586461 -4.41126
upperback -0.742584 -1.09072 1.41522
thorax -4.45043 -0.417029 4.06996
lowerneck -17.7347 -1.27703 -2.17588
upperneck 18.6886 -1.36218 -0.261246
head 8.78603 -0.922099 0.0829548
rclavicle 5.1684e-015 1.66979e-014
rhumerus -35.9044 -2.99313 -80.7896
rradius 40.9379
rwrist -2.95685
rhand -19.1293 -11.205
rfingers 7.12502
rthumb 7.18035 -41.0632
lclavicle 5.1684e-015 1.66979e-014
lhumerus -32.2612 0.113466 92.1449
lradius 31.7673
lwrist -12.8488
lhand -11.4096 9.32933
lfingers 7.12502
lthumb 14.6258 38.7936
rfemur -31.1536 -6.74883 10.7265
rtibia 58.5645
rfoot -15.6423 -10.7814
rtoes -1.8635
lfemur -19.3586 -5.15158 -24.9395
ltibia 36.7357
lfoot -24.6316 4.68065
ltoes -1.57905
202
root 0.884733 16.9688 32.5407 -167.043 -3.08735 175.539
lowerback 6.84814 -0.604616 -4.67621
upperback -0.674063 -1.1425 1.39395
thorax -4.42902 -0.438782 4.20433
lowerneck -17.6982 -1.22676 -2.11401
upperneck 18.5855 -1.30106 -0.283004
head 8.74297 -0.888836 0.0741063
rclavicle 2.78299e-015 -1.11319e-014
rhumerus -35.9234 -3.06196 -80.7199
rradius 41.2698
rwrist -3.04172
rhand -19.1252 -11.192
rfingers 7.12502
rthumb 7.18428 -41.05
lclavicle 2.78299e-015 -1.11319e-014
lhumerus -32.3483 -0.067625 92.1441
lradius 31.7815
lwrist -12.7421
lhand -11.4012 9.31765
lfingers 7.12502
lthumb 14.634 38.7813
rfemur -32.1617 -7.20079 10.5833
rtibia 60.1264
rfoot -15.0189 -10.8972
rtoes -0.656038
lfemur -19.0209 -5.09252 -25.2262
ltibia 36.599
lfoot -24.6801 4.73254
ltoes -1.73422
203
root 0.869376 16.9617 32.4886 -167.099 -2.95488 175.387
lowerback 6.94758 -0.629974 -4.9174
upperback -0.614476 -1.20216 1.377
thorax -4.41268 -0.464861 4.3307
lowerneck -17.6578 -1.1746 -2.05472
upperneck 18.4948 -1.23871 -0.299895
head 8.70359 -0.855092 0.0673633
rclavicle -1.11319e-014 7.95139e-015
rhumerus -35.9647 -3.14019 -80.6576
rradius 41.6103
rwrist -3.14456
rhand -19.1068 -11.2266
rfingers 7.12502
rthumb 7.2021 -41.0841
lclavicle -1.11319e-014 7.95139e-015
lhumerus -32.4488 -0.279169 92.1412
lradius 31.7919
lwrist -12.6512
lhand -11.3942 9.28698
lfingers 7.12502
lthumb 14.6407 38.7501
rfemur -33.1448 -7.67792 10.5085
rtibia 61.5253
rfoot -14.6349 -11.0875
rtoes 0.517321
lfemur -18.6808 -5.03526 -25.4843
ltibia 36.4701
lfoot -24.7308 4.7817
ltoes -1.89816
204
root 0.855086 16.9552 32.4343 -167.154 -2.83611 175.263
lowerback 7.04104 -0.659439 -5.122
upperback -0.561326 -1.26437 1.36266
thorax -4.39953 -0.492993 4.43939
lowerneck -17.6277 -1.12384 -1.99315
upperneck 18.4196 -1.17996 -0.312923
head 8.67148 -0.822756 0.0608973
rclavicle -2.78299e-015 -3.4191e-014
rhumerus -36.0189 -3.24063 -80.6022
rradius 41.9485
rwrist -3.25716
rhand -19.0637 -11.2766
rfingers 7.12502
rthumb 7.24364 -41.1327
lclavicle -2.78299e-015 -3.4191e-014
lhumerus -32.5517 -0.523484 92.133
lradius 31.7934
lwrist -12.5837
lhand -11.3965 9.23991
lfingers 7.12502
lthumb 14.6385 38.7032
rfemur -34.1033 -8.16734 10.5089
rtibia 62.7342
rfoot -14.4661 -11.3347
rtoes 1.63681
lfemur -18.3414 -4.98727 -25.7063
ltibia 36.3512
lfoot -24.7793 4.84089
ltoes -2.08826
205
root 0.841753 16.9498 32.378 -167.2 -2.72232 175.174
lowerback 7.12205 -0.692779 -5.2856
upperback -0.521788 -1.32777 1.35394
thorax -4.3937 -0.522134 4.53089
lowerneck -17.5848 -1.07283 -1.93602
upperneck 18.353 -1.12237 -0.319525
head 8.64015 -0.791035 0.0571421
rclavicle 1.61016e-014 2.70347e-014
rhumerus -36.1005 -3.34443 -80.5564
rradius 42.2884
rwrist -3.38566
rhand -19.0213 -11.3478
rfingers 7.12502
rthumb 7.28459 -41.2024
lclavicle 1.61016e-014 2.70347e-014
lhumerus -32.6603 -0.7694 92.112
lradius 31.7781
lwrist -12.5612
lhand -11.4015 9.16849
lfingers 7.12502
lthumb 14.6337 38.6322
rfemur -35.0464 -8.64946 10.5878
rtibia 63.7341
rfoot -14.4704 -11.6193
rtoes 2.72123
lfemur -18.0141 -4.94315 -25.8869
ltibia 36.2439
lfoot -24.8197 4.91095
ltoes -2.30317
206
root 0.829129 16.9456 32.3198 -167.237 -2.60711 175.116
lowerback 7.18933 -0.725395 -5.40737
upperback -0.488805 -1.38601 1.34726
thorax -4.38803 -0.549547 4.60012
lowerneck -17.5538 -1.29593 -1.79406
upperneck 18.2971 -0.988146 -0.387489
head 8.6148 -0.546157 0.0549132
rclavicle 1.31198e-014 3.18055e-014
rhumerus -36.1868 -3.46773 -80.5197
rradius 42.6077
rwrist -3.51703
rhand -18.9979 -11.3836
rfingers 7.12502
rthumb 7.30718 -41.2374
lclavicle 1.31198e-014 3.18055e-014
lhumerus -32.7531 -1.01442 92.0755
lradius 31.7366
lwrist -12.5862
lhand -11.3716 9.11609
lfingers 7.12502
lthumb 14.6625 38.5777
rfemur -35.9742 -9.1084 10.7351
rtibia 64.5116
rfoot -14.5877 -11.9258
rtoes 3.73815
lfemur -17.6977 -4.90752 -26.0315
ltibia 36.147
lfoot -24.85 5
ltoes -2.54095
207
root 0.817242 16.9426 32.2598 -167.26 -2.481 175.085
lowerback 7.25177 -0.755584 -5.49858
upperback -0.47034 -1.43812 1.34415
thorax -4.39589 -0.573725 4.65534
lowerneck -17.5204 -1.24624 -1.74546
upperneck 18.2521 -0.937591 -0.381482
head 8.59283 -0.518889 0.0553949
rclavicle -1.96797e-014 3.26007e-014
rhumerus -36.2878 -3.5987 -80.4877
rradius 42.897
rwrist -3.64029
rhand -18.9974 -11.4004
rfingers 7.12502
rthumb 7.30763 -41.2543
lclavicle -1.96797e-014 3.26007e-014
lhumerus -32.8422 -1.2245 92.0161
lradius 31.6661
lwrist -12.6752
lhand -11.3275 9.03949
lfingers 7.12502
lthumb 14.705 38.498
rfemur -36.8918 -9.53207 10.9417
rtibia 65.0622
rfoot -14.7603 -12.2353
rtoes 4.65926
lfemur -17.3958 -4.87777 -26.1469
ltibia 36.0583
lfoot -24.8645 5.10731
ltoes -2.80981
208
root 0.805839 16.9409 32.198 -167.272 -2.3341 175.074
lowerback 7.30301 -0.779671 -5.56319
upperback -0.462379 -1.47922 1.34081
thorax -4.4102 -0.592501 4.69402
lowerneck -17.4823 -1.19941 -1.69897
upperneck 18.2101 -0.890959 -0.371579
head 8.57112 -0.49309 0.0570554
rclavicle 1.80894e-014 1.98785e-014
rhumerus -36.3964 -3.74479 -80.4596
rradius 43.1416
rwrist -3.74049
rhand -19.0243 -11.3973
rfingers 7.12502
rthumb 7.28165 -41.252
lclavicle 1.80894e-014 1.98785e-014
lhumerus -32.9162 -1.38642 91.9275
lradius 31.5592
lwrist -12.8212
lhand -11.2686 8.95569
lfingers 7.12502
lthumb 14.7617 38.41
rfemur -37.7961 -9.90461 11.1942
rtibia 65.3849
rfoot -15.0026 -12.5192
rtoes 5.30564
lfemur -17.1051 -4.85039 -26.2413
ltibia 35.9743
lfoot -24.861 5.23392
ltoes -3.10768
209
root 0.79494 16.9404 32.1346 -167.275 -2.16625 175.073
lowerback 7.34943 -0.796239 -5.61242
upperback -0.460915 -1.5088 1.3354
thorax -4.43032 -0.605527 4.72064
lowerneck -17.4542 -1.15612 -1.65757
upperneck 18.1753 -0.848714 -0.355901
head 8.55374 -0.469127 0.0608704
rclavicle 3.57812e-015 3.97569e-015
rhumerus -36.5029 -3.90734 -80.4325
rradius 43.3309
rwrist -3.81877
rhand -19.0798 -11.366
rfingers 7.12502
rthumb 7.22817 -41.2226
lclavicle 3.57812e-015 3.97569e-015
lhumerus -32.9667 -1.48342 91.8068
lradius 31.4162
lwrist -13.0221
lhand -11.1745 8.88444
lfingers 7.12502
lthumb 14.8524 38.3321
rfemur -38.6787 -10.2199 11.4749
rtibia 65.4829
rfoot -15.2783 -12.7782
rtoes 5.72986
lfemur -16.8195 -4.82366 -26.325
ltibia 35.8903
lfoot -24.8382 5.36969
ltoes -3.43785
210
root 0.784446 16.9409 32.0694 -167.271 -1.96598 175.082
lowerback 7.38668 -0.804156 -5.6522
upperback -0.465874 -1.52557 1.32828
thorax -4.45379 -0.612086 4.73864
lowerneck -17.4169 -1.11338 -1.62169
upperneck 18.1366 -0.806738 -0.335901
head 8.53352 -0.445157 0.0670488
rclavicle -2.72335e-014 1.27222e-014
rhumerus -36.6081 -4.07813 -80.4049
rradius 43.4566
rwrist -3.87465
rhand -19.1595 -11.3046
rfingers 7.12502
rthumb 7.15117 -41.1637
lclavicle -2.72335e-014 1.27222e-014
lhumerus -32.9997 -1.4918 91.648
lradius 31.2391
lwrist -13.2713
lhand -11.0687 8.82495
lfingers 7.12502
lthumb 14.9543 38.2651
rfemur -39.5369 -10.4678 11.7769
rtibia 65.3625
rfoot -15.5957 -12.9846
rtoes 5.823
lfemur -16.5349 -4.79245 -26.4024
ltibia 35.8019
lfoot -24.7965 5.51769
ltoes -3.80622
211
root 0.774467 16.9424 32.0026 -167.265 -1.74169 175.092
lowerback 7.4212 -0.803977 -5.6875
upperback -0.473251 -1.53116 1.31772
thorax -4.4798 -0.613067 4.74929
lowerneck -17.3846 -1.07222 -1.58912
upperneck 18.0999 -0.766898 -0.311546
head 8.51487 -0.422011 0.0749175
rclavicle -4.57205e-015 3.33958e-014
rhumerus -36.7062 -4.26503 -80.3744
rradius 43.5116
rwrist -3.89964
rhand -19.263 -11.1998
rfingers 7.12502
rthumb 7.0513 -41.0624
lclavicle -4.57205e-015 3.33958e-014
lhumerus -33.0118 -1.41101 91.4512
lradius 31.0328
lwrist -13.5499
lhand -10.9552 8.78837
lfingers 7.12502
lthumb 15.0636 38.2203
rfemur -40.3572 -10.6523 12.0894
rtibia 65.03
rfoot -15.9488 -13.1295
rtoes 5.65784
lfemur -16.2432 -4.75701 -26.4777
ltibia 35.7032
lfoot -24.7345 5.6639
ltoes -4.19815
